# xmcd
#
# Track frame offsets:
#	150
#	15542
#	31000
#	48750
#	66190
#	81693
#	101274
#	117290
#	136863
#	152532
#	166292
#	183397
#	199871
#	214282
#	232075
#	250985
#	262728
#	277398
#	290967
#	305250
#	322536
#
# Disc length: 4519 seconds
#
# Revision: 2
# Processed by: cddbd v1.5.2PL0 Copyright (c) Steve Scherf et al.
# Submitted via: EasyCDDAExtractor 11.5.0.1
#
DISCID=2711a515
DTITLE=Various Artist - NCT 064
DYEAR=2004
DGENRE=Country
TTITLE0=Brooks and Dunn - That's What It's All About
TTITLE1=Blake Shelton - Some Beach
TTITLE2=George Strait - I Hate Everything
TTITLE3=Trent Willmon - Dixie Rose Deluxe
TTITLE4=Diamond Rio - Can't You Tell
TTITLE5=The Notorious Cherry Bombs - It's Hard To Kiss The Lips At Night That 
TTITLE5=Chew Your Ass Out All Day Long
TTITLE6=Katrina Elam - No End In Sight
TTITLE7=Emerson Drive - November
TTITLE8=Lonestar - Mr Mom
TTITLE9=The Jenkins - Getaway Car
TTITLE10=Clint Black - My Imagination
TTITLE11=Christy Sutherland - Freedom
TTITLE12=Jessie Alexander - Make Me Stay Or Make Me Go
TTITLE13=Doug Stone - How Do I Get Off The Moon
TTITLE14=Jeffrey Steele - 20 Years Ago
TTITLE15=Br549 - Way Too Late (To Go Home Early Now)
TTITLE16=Wayne Warner - Turbo Twang
TTITLE17=Chad Austin - Here's To The Heroes
TTITLE18=Keith Bryant - Ridin' With The Legend
TTITLE19=Jill King - Three Months Two Weeks One Day
TTITLE20=Ray Herndon - My Dog Thinks I'm Elvis
EXTD=
EXTT0=
EXTT1=
EXTT2=
EXTT3=
EXTT4=
EXTT5=
EXTT6=
EXTT7=
EXTT8=
EXTT9=
EXTT10=
EXTT11=
EXTT12=
EXTT13=
EXTT14=
EXTT15=
EXTT16=
EXTT17=
EXTT18=
EXTT19=
EXTT20=
PLAYORDER=
